<svg width="3304" height="1260" viewBox="0 0 3304 1260" fill="none" xmlns="http://www.w3.org/2000/svg">
<rect x="2216" y="149" width="1085" height="1108" stroke="black" stroke-width="6" stroke-dasharray="40 40"/>
<rect x="3" y="149" width="1244" height="1108" stroke="black" stroke-width="6" stroke-dasharray="40 40"/>
<rect x="2362" y="996" width="792" height="148" fill="#D9D9D9" stroke="black" stroke-width="6"/>
<path d="M2664.03 1087V1052.09H2671.41V1080.91H2686.38V1087H2664.03ZM2721.99 1069.55C2721.99 1073.35 2721.27 1076.59 2719.82 1079.26C2718.39 1081.93 2716.44 1083.97 2713.96 1085.38C2711.49 1086.78 2708.72 1087.48 2705.64 1087.48C2702.54 1087.48 2699.76 1086.77 2697.29 1085.36C2694.82 1083.95 2692.88 1081.91 2691.44 1079.24C2690.01 1076.57 2689.3 1073.34 2689.3 1069.55C2689.3 1065.74 2690.01 1062.5 2691.44 1059.83C2692.88 1057.16 2694.82 1055.12 2697.29 1053.73C2699.76 1052.32 2702.54 1051.61 2705.64 1051.61C2708.72 1051.61 2711.49 1052.32 2713.96 1053.73C2716.44 1055.12 2718.39 1057.16 2719.82 1059.83C2721.27 1062.5 2721.99 1065.74 2721.99 1069.55ZM2714.51 1069.55C2714.51 1067.08 2714.14 1065 2713.4 1063.31C2712.67 1061.61 2711.64 1060.33 2710.31 1059.45C2708.98 1058.58 2707.43 1058.14 2705.64 1058.14C2703.86 1058.14 2702.3 1058.58 2700.97 1059.45C2699.64 1060.33 2698.61 1061.61 2697.87 1063.31C2697.14 1065 2696.78 1067.08 2696.78 1069.55C2696.78 1072.01 2697.14 1074.09 2697.87 1075.78C2698.61 1077.48 2699.64 1078.76 2700.97 1079.64C2702.3 1080.51 2703.86 1080.95 2705.64 1080.95C2707.43 1080.95 2708.98 1080.51 2710.31 1079.64C2711.64 1078.76 2712.67 1077.48 2713.4 1075.78C2714.14 1074.09 2714.51 1072.01 2714.51 1069.55ZM2731.5 1087H2723.6L2735.65 1052.09H2745.16L2757.19 1087H2749.28L2740.54 1060.07H2740.27L2731.5 1087ZM2731.01 1073.28H2749.69V1079.04H2731.01V1073.28ZM2773.77 1087H2761.39V1052.09H2773.87C2777.38 1052.09 2780.4 1052.79 2782.94 1054.19C2785.47 1055.57 2787.42 1057.57 2788.79 1060.17C2790.16 1062.77 2790.85 1065.89 2790.85 1069.51C2790.85 1073.15 2790.16 1076.27 2788.79 1078.89C2787.42 1081.5 2785.46 1083.51 2782.9 1084.9C2780.36 1086.3 2777.31 1087 2773.77 1087ZM2768.77 1080.68H2773.46C2775.64 1080.68 2777.48 1080.29 2778.97 1079.52C2780.47 1078.73 2781.59 1077.52 2782.34 1075.89C2783.1 1074.24 2783.48 1072.11 2783.48 1069.51C2783.48 1066.93 2783.1 1064.82 2782.34 1063.19C2781.59 1061.55 2780.47 1060.35 2778.98 1059.57C2777.5 1058.8 2775.66 1058.41 2773.48 1058.41H2768.77V1080.68ZM2796.32 1087V1052.09H2819.84V1058.18H2803.7V1066.49H2818.63V1072.58H2803.7V1080.91H2819.91V1087H2796.32ZM2825.71 1087V1052.09H2839.48C2842.12 1052.09 2844.37 1052.56 2846.23 1053.51C2848.1 1054.44 2849.53 1055.76 2850.51 1057.48C2851.5 1059.18 2851.99 1061.19 2851.99 1063.49C2851.99 1065.81 2851.49 1067.81 2850.49 1069.48C2849.49 1071.14 2848.04 1072.41 2846.14 1073.3C2844.26 1074.18 2841.97 1074.62 2839.29 1074.62H2830.07V1068.69H2838.1C2839.51 1068.69 2840.68 1068.5 2841.61 1068.11C2842.54 1067.73 2843.23 1067.15 2843.69 1066.38C2844.15 1065.6 2844.39 1064.64 2844.39 1063.49C2844.39 1062.34 2844.15 1061.36 2843.69 1060.56C2843.23 1059.77 2842.54 1059.16 2841.59 1058.76C2840.66 1058.34 2839.48 1058.12 2838.06 1058.12H2833.09V1087H2825.71ZM2844.56 1071.11L2853.23 1087H2845.09L2836.6 1071.11H2844.56Z" fill="black"/>
<rect x="2362" y="262" width="238" height="148" fill="#D9D9D9" stroke="black" stroke-width="6"/>
<path d="M2427.03 353V318.091H2440.81C2443.45 318.091 2445.71 318.597 2447.57 319.608C2449.44 320.608 2450.86 322 2451.84 323.784C2452.82 325.557 2453.32 327.602 2453.32 329.92C2453.32 332.239 2452.82 334.284 2451.82 336.057C2450.82 337.83 2449.37 339.21 2447.47 340.199C2445.59 341.187 2443.3 341.682 2440.62 341.682H2431.84V335.767H2439.43C2440.85 335.767 2442.02 335.523 2442.94 335.034C2443.87 334.534 2444.56 333.847 2445.02 332.972C2445.48 332.085 2445.72 331.068 2445.72 329.92C2445.72 328.761 2445.48 327.75 2445.02 326.886C2444.56 326.011 2443.87 325.335 2442.94 324.858C2442.01 324.369 2440.82 324.125 2439.39 324.125H2434.41V353H2427.03ZM2470.49 353H2458.11V318.091H2470.59C2474.1 318.091 2477.12 318.79 2479.66 320.188C2482.19 321.574 2484.14 323.568 2485.5 326.17C2486.88 328.773 2487.57 331.886 2487.57 335.511C2487.57 339.148 2486.88 342.273 2485.5 344.886C2484.14 347.5 2482.18 349.506 2479.62 350.903C2477.08 352.301 2474.03 353 2470.49 353ZM2465.49 346.676H2470.18C2472.36 346.676 2474.2 346.29 2475.69 345.517C2477.19 344.733 2478.31 343.523 2479.06 341.886C2479.82 340.239 2480.2 338.114 2480.2 335.511C2480.2 332.932 2479.82 330.824 2479.06 329.188C2478.31 327.551 2477.19 326.347 2475.7 325.574C2474.21 324.801 2472.38 324.415 2470.2 324.415H2465.49V346.676ZM2510.16 353H2502.25L2514.3 318.091H2523.81L2535.85 353H2527.94L2519.19 326.068H2518.92L2510.16 353ZM2509.67 339.278H2528.35V345.04H2509.67V339.278Z" fill="black"/>
<rect x="2916" y="262" width="238" height="148" fill="#D9D9D9" stroke="black" stroke-width="6"/>
<path d="M2983.03 353V318.091H2996.81C2999.45 318.091 3001.71 318.597 3003.57 319.608C3005.44 320.608 3006.86 322 3007.84 323.784C3008.82 325.557 3009.32 327.602 3009.32 329.92C3009.32 332.239 3008.82 334.284 3007.82 336.057C3006.82 337.83 3005.37 339.21 3003.47 340.199C3001.59 341.187 2999.3 341.682 2996.62 341.682H2987.84V335.767H2995.43C2996.85 335.767 2998.02 335.523 2998.94 335.034C2999.87 334.534 3000.56 333.847 3001.02 332.972C3001.48 332.085 3001.72 331.068 3001.72 329.92C3001.72 328.761 3001.48 327.75 3001.02 326.886C3000.56 326.011 2999.87 325.335 2998.94 324.858C2998.01 324.369 2996.82 324.125 2995.39 324.125H2990.41V353H2983.03ZM3026.49 353H3014.11V318.091H3026.59C3030.1 318.091 3033.12 318.79 3035.66 320.188C3038.19 321.574 3040.14 323.568 3041.5 326.17C3042.88 328.773 3043.57 331.886 3043.57 335.511C3043.57 339.148 3042.88 342.273 3041.5 344.886C3040.14 347.5 3038.18 349.506 3035.62 350.903C3033.08 352.301 3030.03 353 3026.49 353ZM3021.49 346.676H3026.18C3028.36 346.676 3030.2 346.29 3031.69 345.517C3033.19 344.733 3034.31 343.523 3035.06 341.886C3035.82 340.239 3036.2 338.114 3036.2 335.511C3036.2 332.932 3035.82 330.824 3035.06 329.188C3034.31 327.551 3033.19 326.347 3031.7 325.574C3030.21 324.801 3028.38 324.415 3026.2 324.415H3021.49V346.676ZM3060.14 353V318.091H3074.12C3076.69 318.091 3078.83 318.472 3080.55 319.233C3082.26 319.994 3083.55 321.051 3084.42 322.403C3085.28 323.744 3085.71 325.29 3085.71 327.04C3085.71 328.403 3085.44 329.602 3084.89 330.636C3084.35 331.659 3083.6 332.5 3082.64 333.159C3081.7 333.807 3080.62 334.267 3079.4 334.54V334.881C3080.73 334.937 3081.98 335.312 3083.14 336.006C3084.31 336.699 3085.26 337.67 3085.98 338.92C3086.71 340.159 3087.08 341.636 3087.08 343.352C3087.08 345.205 3086.62 346.858 3085.69 348.312C3084.79 349.756 3083.44 350.898 3081.65 351.739C3079.87 352.58 3077.67 353 3075.06 353H3060.14ZM3067.52 346.966H3073.54C3075.6 346.966 3077.1 346.574 3078.04 345.79C3078.98 344.994 3079.46 343.937 3079.46 342.619C3079.46 341.653 3079.22 340.801 3078.76 340.062C3078.29 339.324 3077.63 338.744 3076.76 338.324C3075.91 337.903 3074.89 337.693 3073.71 337.693H3067.52V346.966ZM3067.52 332.699H3073C3074.01 332.699 3074.9 332.523 3075.69 332.17C3076.48 331.807 3077.11 331.295 3077.56 330.636C3078.03 329.977 3078.26 329.188 3078.26 328.267C3078.26 327.006 3077.81 325.989 3076.92 325.216C3076.03 324.443 3074.77 324.057 3073.13 324.057H3067.52V332.699Z" fill="black"/>
<rect x="2471" y="507" width="575" height="148" fill="#D9D9D9" stroke="black" stroke-width="6"/>
<path d="M2646.67 534.091H2655.77L2665.38 557.545H2665.79L2675.41 534.091H2684.51V569H2677.35V546.278H2677.06L2668.02 568.83H2663.15L2654.12 546.193H2653.83V569H2646.67V534.091ZM2722.67 551.545C2722.67 555.352 2721.95 558.591 2720.5 561.261C2719.07 563.932 2717.12 565.972 2714.64 567.381C2712.17 568.778 2709.4 569.477 2706.32 569.477C2703.22 569.477 2700.44 568.773 2697.97 567.364C2695.5 565.955 2693.55 563.915 2692.12 561.244C2690.69 558.574 2689.98 555.341 2689.98 551.545C2689.98 547.739 2690.69 544.5 2692.12 541.83C2693.55 539.159 2695.5 537.125 2697.97 535.727C2700.44 534.318 2703.22 533.614 2706.32 533.614C2709.4 533.614 2712.17 534.318 2714.64 535.727C2717.12 537.125 2719.07 539.159 2720.5 541.83C2721.95 544.5 2722.67 547.739 2722.67 551.545ZM2715.19 551.545C2715.19 549.08 2714.82 547 2714.08 545.307C2713.35 543.614 2712.32 542.33 2710.99 541.455C2709.66 540.58 2708.11 540.142 2706.32 540.142C2704.54 540.142 2702.98 540.58 2701.65 541.455C2700.32 542.33 2699.29 543.614 2698.55 545.307C2697.82 547 2697.46 549.08 2697.46 551.545C2697.46 554.011 2697.82 556.091 2698.55 557.784C2699.29 559.477 2700.32 560.761 2701.65 561.636C2702.98 562.511 2704.54 562.949 2706.32 562.949C2708.11 562.949 2709.66 562.511 2710.99 561.636C2712.32 560.761 2713.35 559.477 2714.08 557.784C2714.82 556.091 2715.19 554.011 2715.19 551.545ZM2757.33 534.091V569H2750.96L2735.77 547.028H2735.52V569H2728.14V534.091H2734.61L2749.68 556.045H2749.99V534.091H2757.33ZM2770.81 534.091V569H2763.43V534.091H2770.81ZM2775.56 540.176V534.091H2804.23V540.176H2793.54V569H2786.24V540.176H2775.56ZM2839.43 551.545C2839.43 555.352 2838.71 558.591 2837.27 561.261C2835.84 563.932 2833.88 565.972 2831.41 567.381C2828.94 568.778 2826.17 569.477 2823.09 569.477C2819.99 569.477 2817.2 568.773 2814.74 567.364C2812.27 565.955 2810.32 563.915 2808.89 561.244C2807.46 558.574 2806.74 555.341 2806.74 551.545C2806.74 547.739 2807.46 544.5 2808.89 541.83C2810.32 539.159 2812.27 537.125 2814.74 535.727C2817.2 534.318 2819.99 533.614 2823.09 533.614C2826.17 533.614 2828.94 534.318 2831.41 535.727C2833.88 537.125 2835.84 539.159 2837.27 541.83C2838.71 544.5 2839.43 547.739 2839.43 551.545ZM2831.95 551.545C2831.95 549.08 2831.58 547 2830.84 545.307C2830.12 543.614 2829.09 542.33 2827.76 541.455C2826.43 540.58 2824.87 540.142 2823.09 540.142C2821.3 540.142 2819.75 540.58 2818.42 541.455C2817.09 542.33 2816.05 543.614 2815.31 545.307C2814.59 547 2814.22 549.08 2814.22 551.545C2814.22 554.011 2814.59 556.091 2815.31 557.784C2816.05 559.477 2817.09 560.761 2818.42 561.636C2819.75 562.511 2821.3 562.949 2823.09 562.949C2824.87 562.949 2826.43 562.511 2827.76 561.636C2829.09 560.761 2830.12 559.477 2830.84 557.784C2831.58 556.091 2831.95 554.011 2831.95 551.545ZM2844.9 569V534.091H2858.67C2861.31 534.091 2863.56 534.562 2865.42 535.506C2867.3 536.437 2868.73 537.761 2869.7 539.477C2870.69 541.182 2871.19 543.187 2871.19 545.494C2871.19 547.812 2870.69 549.807 2869.69 551.477C2868.69 553.136 2867.24 554.409 2865.34 555.295C2863.45 556.182 2861.17 556.625 2858.49 556.625H2849.26V550.693H2857.29C2858.7 550.693 2859.87 550.5 2860.8 550.114C2861.74 549.727 2862.43 549.148 2862.88 548.375C2863.35 547.602 2863.58 546.642 2863.58 545.494C2863.58 544.335 2863.35 543.358 2862.88 542.562C2862.43 541.767 2861.73 541.165 2860.79 540.756C2859.86 540.335 2858.68 540.125 2857.26 540.125H2852.28V569H2844.9ZM2863.75 553.114L2872.43 569H2864.28L2855.79 553.114H2863.75ZM2588.65 609.545C2588.65 605.318 2589.21 601.426 2590.34 597.869C2591.47 594.312 2593.21 591.017 2595.53 587.983H2602.47C2601.59 589.108 2600.76 590.483 2600 592.108C2599.24 593.722 2598.57 595.494 2598.01 597.426C2597.44 599.358 2597 601.358 2596.68 603.426C2596.36 605.483 2596.2 607.523 2596.2 609.545C2596.2 612.239 2596.47 614.96 2597.02 617.71C2597.57 620.449 2598.32 622.994 2599.27 625.347C2600.22 627.699 2601.29 629.625 2602.47 631.125H2595.53C2593.21 628.091 2591.47 624.795 2590.34 621.239C2589.21 617.682 2588.65 613.784 2588.65 609.545ZM2614.2 592.091V627H2606.82V592.091H2614.2ZM2649.48 592.091V627H2643.1L2627.91 605.028H2627.66V627H2620.28V592.091H2626.75L2641.82 614.045H2642.13V592.091H2649.48ZM2662.95 592.091V627H2655.57V592.091H2662.95ZM2667.7 598.176V592.091H2696.37V598.176H2685.68V627H2678.38V598.176H2667.7ZM2708.47 592.091V627H2701.09V592.091H2708.47ZM2720.56 627H2712.65L2724.7 592.091H2734.21L2746.25 627H2738.34L2729.59 600.068H2729.32L2720.56 627ZM2720.06 613.278H2738.75V619.04H2720.06V613.278ZM2750.45 627V592.091H2757.83V620.915H2772.79V627H2750.45ZM2787.46 598.176V592.091H2816.13V598.176H2805.45V627H2798.15V598.176H2787.46ZM2822.61 627H2814.7L2826.75 592.091H2836.26L2848.29 627H2840.38L2831.64 600.068H2831.37L2822.61 627ZM2822.11 613.278H2840.79V619.04H2822.11V613.278ZM2870.64 602.131C2870.5 600.756 2869.91 599.687 2868.88 598.926C2867.85 598.165 2866.44 597.784 2864.67 597.784C2863.47 597.784 2862.45 597.955 2861.62 598.295C2860.79 598.625 2860.15 599.085 2859.71 599.676C2859.28 600.267 2859.06 600.938 2859.06 601.688C2859.04 602.312 2859.17 602.858 2859.45 603.324C2859.75 603.79 2860.15 604.193 2860.66 604.534C2861.18 604.864 2861.77 605.153 2862.44 605.403C2863.11 605.642 2863.82 605.847 2864.58 606.017L2867.72 606.767C2869.24 607.108 2870.64 607.562 2871.91 608.131C2873.19 608.699 2874.29 609.398 2875.22 610.227C2876.15 611.057 2876.87 612.034 2877.39 613.159C2877.91 614.284 2878.18 615.574 2878.19 617.028C2878.18 619.165 2877.63 621.017 2876.55 622.585C2875.48 624.142 2873.94 625.352 2871.91 626.216C2869.9 627.068 2867.48 627.494 2864.64 627.494C2861.82 627.494 2859.36 627.062 2857.27 626.199C2855.19 625.335 2853.57 624.057 2852.4 622.364C2851.24 620.659 2850.63 618.551 2850.57 616.04H2857.72C2857.79 617.21 2858.13 618.187 2858.72 618.972C2859.32 619.744 2860.12 620.33 2861.12 620.727C2862.14 621.114 2863.28 621.307 2864.55 621.307C2865.8 621.307 2866.89 621.125 2867.81 620.761C2868.74 620.398 2869.46 619.892 2869.97 619.244C2870.48 618.597 2870.74 617.852 2870.74 617.011C2870.74 616.227 2870.5 615.568 2870.04 615.034C2869.58 614.5 2868.91 614.045 2868.03 613.67C2867.15 613.295 2866.08 612.955 2864.81 612.648L2861 611.693C2858.06 610.977 2855.74 609.858 2854.03 608.335C2852.33 606.812 2851.48 604.761 2851.49 602.182C2851.48 600.068 2852.04 598.222 2853.18 596.642C2854.33 595.062 2855.9 593.83 2857.9 592.943C2859.9 592.057 2862.18 591.614 2864.72 591.614C2867.31 591.614 2869.57 592.057 2871.5 592.943C2873.45 593.83 2874.96 595.062 2876.04 596.642C2877.12 598.222 2877.68 600.051 2877.71 602.131H2870.64ZM2883.15 627V592.091H2890.53V607.483H2890.99L2903.55 592.091H2912.4L2899.45 607.722L2912.55 627H2903.73L2894.16 612.648L2890.53 617.08V627H2883.15ZM2928.35 609.545C2928.35 613.784 2927.78 617.682 2926.64 621.239C2925.52 624.795 2923.79 628.091 2921.46 631.125H2914.52C2915.41 630 2916.23 628.625 2917 627C2917.76 625.375 2918.42 623.602 2918.99 621.682C2919.56 619.75 2920 617.75 2920.32 615.682C2920.64 613.614 2920.8 611.568 2920.8 609.545C2920.8 606.852 2920.52 604.136 2919.96 601.398C2919.42 598.648 2918.67 596.102 2917.71 593.761C2916.77 591.409 2915.71 589.483 2914.52 587.983H2921.46C2923.79 591.017 2925.52 594.312 2926.64 597.869C2927.78 601.426 2928.35 605.318 2928.35 609.545Z" fill="black"/>
<rect x="2362" y="751" width="792" height="148" fill="#D9D9D9" stroke="black" stroke-width="6"/>
<path d="M2719.97 817.131C2719.84 815.756 2719.25 814.687 2718.22 813.926C2717.18 813.165 2715.78 812.784 2714.01 812.784C2712.8 812.784 2711.78 812.955 2710.95 813.295C2710.13 813.625 2709.49 814.085 2709.05 814.676C2708.61 815.267 2708.4 815.938 2708.4 816.688C2708.38 817.312 2708.51 817.858 2708.79 818.324C2709.09 818.79 2709.49 819.193 2710 819.534C2710.51 819.864 2711.1 820.153 2711.77 820.403C2712.44 820.642 2713.16 820.847 2713.92 821.017L2717.06 821.767C2718.58 822.108 2719.98 822.562 2721.25 823.131C2722.52 823.699 2723.63 824.398 2724.56 825.227C2725.49 826.057 2726.21 827.034 2726.72 828.159C2727.24 829.284 2727.51 830.574 2727.52 832.028C2727.51 834.165 2726.97 836.017 2725.89 837.585C2724.82 839.142 2723.27 840.352 2721.25 841.216C2719.24 842.068 2716.81 842.494 2713.97 842.494C2711.15 842.494 2708.7 842.062 2706.61 841.199C2704.53 840.335 2702.9 839.057 2701.73 837.364C2700.57 835.659 2699.97 833.551 2699.91 831.04H2707.05C2707.13 832.21 2707.47 833.187 2708.06 833.972C2708.66 834.744 2709.46 835.33 2710.46 835.727C2711.47 836.114 2712.61 836.307 2713.89 836.307C2715.14 836.307 2716.22 836.125 2717.14 835.761C2718.07 835.398 2718.8 834.892 2719.31 834.244C2719.82 833.597 2720.07 832.852 2720.07 832.011C2720.07 831.227 2719.84 830.568 2719.38 830.034C2718.92 829.5 2718.25 829.045 2717.36 828.67C2716.49 828.295 2715.41 827.955 2714.14 827.648L2710.34 826.693C2707.4 825.977 2705.07 824.858 2703.37 823.335C2701.66 821.812 2700.82 819.761 2700.83 817.182C2700.82 815.068 2701.38 813.222 2702.52 811.642C2703.66 810.062 2705.24 808.83 2707.24 807.943C2709.24 807.057 2711.51 806.614 2714.06 806.614C2716.65 806.614 2718.91 807.057 2720.84 807.943C2722.78 808.83 2724.3 810.062 2725.38 811.642C2726.45 813.222 2727.01 815.051 2727.05 817.131H2719.97ZM2732.49 842V807.091H2756.01V813.176H2739.87V821.494H2754.8V827.58H2739.87V835.915H2756.08V842H2732.49ZM2761.88 842V807.091H2769.26V835.915H2784.22V842H2761.88ZM2788.38 835.864V830.051L2802.95 807.091H2807.96V815.136H2805L2795.81 829.676V829.949H2816.52V835.864H2788.38ZM2805.13 842V834.091L2805.27 831.517V807.091H2812.19V842H2805.13Z" fill="black"/>
<path d="M2601.05 62V15.4545H2619.41C2622.92 15.4545 2625.92 16.0833 2628.41 17.3409C2630.91 18.5833 2632.81 20.3485 2634.11 22.6364C2635.43 24.9091 2636.09 27.5833 2636.09 30.6591C2636.09 33.75 2635.42 36.4091 2634.09 38.6364C2632.76 40.8485 2630.83 42.5455 2628.3 43.7273C2625.78 44.9091 2622.73 45.5 2619.16 45.5H2606.86V37.5909H2617.57C2619.45 37.5909 2621.01 37.3333 2622.25 36.8182C2623.49 36.303 2624.42 35.5303 2625.02 34.5C2625.64 33.4697 2625.95 32.1894 2625.95 30.6591C2625.95 29.1136 2625.64 27.8106 2625.02 26.75C2624.42 25.6894 2623.48 24.8864 2622.23 24.3409C2620.98 23.7803 2619.42 23.5 2617.52 23.5H2610.89V62H2601.05ZM2626.18 40.8182L2637.75 62H2626.89L2615.57 40.8182H2626.18ZM2671.8 15.4545H2681.64V45.6818C2681.64 49.0758 2680.83 52.0455 2679.2 54.5909C2677.6 57.1364 2675.35 59.1212 2672.45 60.5455C2669.56 61.9545 2666.19 62.6591 2662.34 62.6591C2658.48 62.6591 2655.1 61.9545 2652.2 60.5455C2649.31 59.1212 2647.06 57.1364 2645.45 54.5909C2643.85 52.0455 2643.05 49.0758 2643.05 45.6818V15.4545H2652.89V44.8409C2652.89 46.6136 2653.27 48.1894 2654.05 49.5682C2654.83 50.947 2655.94 52.0303 2657.36 52.8182C2658.79 53.6061 2660.45 54 2662.34 54C2664.25 54 2665.91 53.6061 2667.32 52.8182C2668.74 52.0303 2669.84 50.947 2670.61 49.5682C2671.4 48.1894 2671.8 46.6136 2671.8 44.8409V15.4545ZM2728.66 15.4545V62H2720.16L2699.91 32.7045H2699.57V62H2689.73V15.4545H2698.37L2718.46 44.7273H2718.87V15.4545H2728.66ZM2758.36 34.8864V42.5682H2737.14V34.8864H2758.36ZM2763.09 23.5682V15.4545H2801.31V23.5682H2787.06V62H2777.34V23.5682H2763.09ZM2817.45 15.4545V62H2807.61V15.4545H2817.45ZM2825.55 15.4545H2837.68L2850.5 46.7273H2851.05L2863.86 15.4545H2876V62H2866.45V31.7045H2866.07L2854.02 61.7727H2847.52L2835.48 31.5909H2835.09V62H2825.55V15.4545ZM2884.11 62V15.4545H2915.47V23.5682H2893.95V34.6591H2913.86V42.7727H2893.95V53.8864H2915.56V62H2884.11Z" fill="black"/>
<path d="M441.045 62V15.4545H459.682C463.106 15.4545 465.962 15.9621 468.25 16.9773C470.538 17.9924 472.258 19.4015 473.409 21.2045C474.561 22.9924 475.136 25.053 475.136 27.3864C475.136 29.2045 474.773 30.803 474.045 32.1818C473.318 33.5455 472.318 34.6667 471.045 35.5455C469.788 36.4091 468.348 37.0227 466.727 37.3864V37.8409C468.5 37.9167 470.159 38.4167 471.705 39.3409C473.265 40.2652 474.53 41.5606 475.5 43.2273C476.47 44.8788 476.955 46.8485 476.955 49.1364C476.955 51.6061 476.341 53.8106 475.114 55.75C473.902 57.6742 472.106 59.197 469.727 60.3182C467.348 61.4394 464.417 62 460.932 62H441.045ZM450.886 53.9545H458.909C461.652 53.9545 463.652 53.4318 464.909 52.3864C466.167 51.3258 466.795 49.9167 466.795 48.1591C466.795 46.8712 466.485 45.7348 465.864 44.75C465.242 43.7652 464.356 42.9924 463.205 42.4318C462.068 41.8712 460.712 41.5909 459.136 41.5909H450.886V53.9545ZM450.886 34.9318H458.182C459.53 34.9318 460.727 34.697 461.773 34.2273C462.833 33.7424 463.667 33.0606 464.273 32.1818C464.894 31.303 465.205 30.25 465.205 29.0227C465.205 27.3409 464.606 25.9848 463.409 24.9545C462.227 23.9242 460.545 23.4091 458.364 23.4091H450.886V34.9318ZM512.108 15.4545H521.949V45.6818C521.949 49.0758 521.138 52.0455 519.517 54.5909C517.911 57.1364 515.661 59.1212 512.767 60.5455C509.873 61.9545 506.502 62.6591 502.653 62.6591C498.79 62.6591 495.411 61.9545 492.517 60.5455C489.623 59.1212 487.373 57.1364 485.767 54.5909C484.161 52.0455 483.358 49.0758 483.358 45.6818V15.4545H493.199V44.8409C493.199 46.6136 493.585 48.1894 494.358 49.5682C495.146 50.947 496.252 52.0303 497.676 52.8182C499.1 53.6061 500.759 54 502.653 54C504.563 54 506.222 53.6061 507.631 52.8182C509.055 52.0303 510.153 50.947 510.926 49.5682C511.714 48.1894 512.108 46.6136 512.108 44.8409V15.4545ZM539.886 15.4545V62H530.045V15.4545H539.886ZM547.983 62V15.4545H557.824V53.8864H577.778V62H547.983ZM600.795 62H584.295V15.4545H600.932C605.614 15.4545 609.644 16.3864 613.023 18.25C616.402 20.0985 619 22.7576 620.818 26.2273C622.652 29.697 623.568 33.8485 623.568 38.6818C623.568 43.5303 622.652 47.697 620.818 51.1818C619 54.6667 616.386 57.3409 612.977 59.2045C609.583 61.0682 605.523 62 600.795 62ZM594.136 53.5682H600.386C603.295 53.5682 605.742 53.053 607.727 52.0227C609.727 50.9773 611.227 49.3636 612.227 47.1818C613.242 44.9848 613.75 42.1515 613.75 38.6818C613.75 35.2424 613.242 32.4318 612.227 30.25C611.227 28.0682 609.735 26.4621 607.75 25.4318C605.765 24.4015 603.318 23.8864 600.409 23.8864H594.136V53.5682ZM652.426 34.8864V42.5682H631.199V34.8864H652.426ZM657.148 23.5682V15.4545H695.375V23.5682H681.125V62H671.398V23.5682H657.148ZM711.511 15.4545V62H701.67V15.4545H711.511ZM719.608 15.4545H731.744L744.562 46.7273H745.108L757.926 15.4545H770.062V62H760.517V31.7045H760.131L748.085 61.7727H741.585L729.54 31.5909H729.153V62H719.608V15.4545ZM778.17 62V15.4545H809.534V23.5682H788.011V34.6591H807.92V42.7727H788.011V53.8864H809.625V62H778.17Z" fill="black"/>
<path d="M2764 902L2746.68 932H2781.32L2764 902ZM2767 993V929H2761V993H2767Z" fill="black"/>
<path d="M2764 658L2746.68 688H2781.32L2764 658ZM2767 749V685H2761V749H2767Z" fill="black"/>
<path d="M2481 413L2494.69 444.821L2515.4 417.053L2481 413ZM2604.79 501.595L2504.44 426.738L2500.85 431.548L2601.21 506.405L2604.79 501.595Z" fill="black"/>
<path d="M3035 414L3000.62 418.282L3021.52 445.911L3035 414ZM2917.81 506.393L3015.27 432.679L3011.66 427.894L2914.19 501.607L2917.81 506.393Z" fill="black"/>
<rect x="1478" y="526" width="506" height="296" fill="#D9D9D9" stroke="black" stroke-width="6"/>
<path d="M1624.42 625.841C1624.24 624.008 1623.46 622.583 1622.08 621.568C1620.7 620.553 1618.83 620.045 1616.47 620.045C1614.86 620.045 1613.5 620.273 1612.4 620.727C1611.29 621.167 1610.44 621.78 1609.85 622.568C1609.28 623.356 1608.99 624.25 1608.99 625.25C1608.96 626.083 1609.13 626.811 1609.51 627.432C1609.91 628.053 1610.44 628.591 1611.12 629.045C1611.81 629.485 1612.59 629.871 1613.49 630.205C1614.38 630.523 1615.34 630.795 1616.35 631.023L1620.53 632.023C1622.56 632.477 1624.43 633.083 1626.12 633.841C1627.82 634.598 1629.29 635.53 1630.53 636.636C1631.78 637.742 1632.74 639.045 1633.42 640.545C1634.12 642.045 1634.47 643.765 1634.49 645.705C1634.47 648.553 1633.75 651.023 1632.31 653.114C1630.88 655.189 1628.82 656.803 1626.12 657.955C1623.44 659.091 1620.21 659.659 1616.42 659.659C1612.66 659.659 1609.39 659.083 1606.6 657.932C1603.83 656.78 1601.66 655.076 1600.1 652.818C1598.56 650.545 1597.75 647.735 1597.67 644.386H1607.19C1607.3 645.947 1607.75 647.25 1608.53 648.295C1609.34 649.326 1610.41 650.106 1611.74 650.636C1613.09 651.152 1614.61 651.409 1616.31 651.409C1617.97 651.409 1619.42 651.167 1620.65 650.682C1621.89 650.197 1622.85 649.523 1623.53 648.659C1624.22 647.795 1624.56 646.803 1624.56 645.682C1624.56 644.636 1624.25 643.758 1623.62 643.045C1623.02 642.333 1622.13 641.727 1620.94 641.227C1619.78 640.727 1618.34 640.273 1616.65 639.864L1611.58 638.591C1607.66 637.636 1604.56 636.144 1602.28 634.114C1600.01 632.083 1598.88 629.348 1598.9 625.909C1598.88 623.091 1599.63 620.629 1601.15 618.523C1602.68 616.417 1604.78 614.773 1607.44 613.591C1610.11 612.409 1613.14 611.818 1616.53 611.818C1619.99 611.818 1623 612.409 1625.58 613.591C1628.17 614.773 1630.19 616.417 1631.62 618.523C1633.06 620.629 1633.81 623.068 1633.85 625.841H1624.42ZM1638.38 612.455H1649.4L1660.02 632.5H1660.47L1671.09 612.455H1682.11L1665.13 642.545V659H1655.36V642.545L1638.38 612.455ZM1712.73 625.841C1712.55 624.008 1711.77 622.583 1710.39 621.568C1709.01 620.553 1707.14 620.045 1704.78 620.045C1703.17 620.045 1701.82 620.273 1700.71 620.727C1699.6 621.167 1698.76 621.78 1698.16 622.568C1697.59 623.356 1697.3 624.25 1697.3 625.25C1697.27 626.083 1697.45 626.811 1697.82 627.432C1698.22 628.053 1698.76 628.591 1699.44 629.045C1700.12 629.485 1700.91 629.871 1701.8 630.205C1702.7 630.523 1703.65 630.795 1704.66 631.023L1708.85 632.023C1710.88 632.477 1712.74 633.083 1714.44 633.841C1716.13 634.598 1717.6 635.53 1718.85 636.636C1720.09 637.742 1721.05 639.045 1721.73 640.545C1722.43 642.045 1722.79 643.765 1722.8 645.705C1722.79 648.553 1722.06 651.023 1720.62 653.114C1719.2 655.189 1717.13 656.803 1714.44 657.955C1711.76 659.091 1708.52 659.659 1704.73 659.659C1700.98 659.659 1697.7 659.083 1694.91 657.932C1692.14 656.78 1689.98 655.076 1688.41 652.818C1686.87 650.545 1686.06 647.735 1685.98 644.386H1695.51C1695.61 645.947 1696.06 647.25 1696.85 648.295C1697.65 649.326 1698.72 650.106 1700.05 650.636C1701.4 651.152 1702.92 651.409 1704.62 651.409C1706.29 651.409 1707.73 651.167 1708.96 650.682C1710.2 650.197 1711.16 649.523 1711.85 648.659C1712.53 647.795 1712.87 646.803 1712.87 645.682C1712.87 644.636 1712.56 643.758 1711.94 643.045C1711.33 642.333 1710.44 641.727 1709.26 641.227C1708.09 640.727 1706.66 640.273 1704.96 639.864L1699.89 638.591C1695.97 637.636 1692.87 636.144 1690.6 634.114C1688.32 632.083 1687.2 629.348 1687.21 625.909C1687.2 623.091 1687.95 620.629 1689.46 618.523C1690.99 616.417 1693.09 614.773 1695.76 613.591C1698.42 612.409 1701.45 611.818 1704.85 611.818C1708.3 611.818 1711.32 612.409 1713.89 613.591C1716.48 614.773 1718.5 616.417 1719.94 618.523C1721.38 620.629 1722.12 623.068 1722.16 625.841H1712.73ZM1727.65 620.568V612.455H1765.88V620.568H1751.62V659H1741.9V620.568H1727.65ZM1772.17 659V612.455H1803.53V620.568H1782.01V631.659H1801.92V639.773H1782.01V650.886H1803.62V659H1772.17ZM1811.36 612.455H1823.49L1836.31 643.727H1836.86L1849.68 612.455H1861.81V659H1852.27V628.705H1851.88L1839.84 658.773H1833.34L1821.29 628.591H1820.9V659H1811.36V612.455ZM1639.36 689.455V736H1629.51V689.455H1639.36ZM1647.45 689.455H1659.59L1672.41 720.727H1672.95L1685.77 689.455H1697.91V736H1688.36V705.705H1687.97L1675.93 735.773H1669.43L1657.38 705.591H1657V736H1647.45V689.455ZM1714.04 736H1703.49L1719.56 689.455H1732.24L1748.29 736H1737.74L1726.08 700.091H1725.72L1714.04 736ZM1713.38 717.705H1738.29V725.386H1713.38V717.705ZM1782.57 704.5C1782.25 703.394 1781.8 702.417 1781.22 701.568C1780.65 700.705 1779.94 699.977 1779.11 699.386C1778.29 698.78 1777.35 698.318 1776.29 698C1775.25 697.682 1774.09 697.523 1772.82 697.523C1770.44 697.523 1768.35 698.114 1766.54 699.295C1764.75 700.477 1763.36 702.197 1762.36 704.455C1761.36 706.697 1760.86 709.439 1760.86 712.682C1760.86 715.924 1761.35 718.682 1762.34 720.955C1763.32 723.227 1764.72 724.962 1766.52 726.159C1768.32 727.341 1770.45 727.932 1772.91 727.932C1775.13 727.932 1777.04 727.538 1778.61 726.75C1780.2 725.947 1781.41 724.818 1782.25 723.364C1783.1 721.909 1783.52 720.189 1783.52 718.205L1785.52 718.5H1773.52V711.091H1793V716.955C1793 721.045 1792.13 724.561 1790.41 727.5C1788.68 730.424 1786.3 732.682 1783.27 734.273C1780.24 735.848 1776.77 736.636 1772.86 736.636C1768.5 736.636 1764.66 735.674 1761.36 733.75C1758.06 731.811 1755.48 729.061 1753.63 725.5C1751.8 721.924 1750.88 717.682 1750.88 712.773C1750.88 709 1751.43 705.636 1752.52 702.682C1753.63 699.712 1755.17 697.197 1757.16 695.136C1759.14 693.076 1761.45 691.508 1764.09 690.432C1766.72 689.356 1769.58 688.818 1772.66 688.818C1775.29 688.818 1777.75 689.205 1780.02 689.977C1782.29 690.735 1784.31 691.811 1786.07 693.205C1787.84 694.598 1789.29 696.258 1790.41 698.182C1791.53 700.091 1792.25 702.197 1792.57 704.5H1782.57ZM1800.39 736V689.455H1831.75V697.568H1810.23V708.659H1830.14V716.773H1810.23V727.886H1831.84V736H1800.39Z" fill="black"/>
<rect x="101" y="415" width="361" height="148" fill="#D9D9D9" stroke="black" stroke-width="6"/>
<path d="M166.034 506V471.091H189.557V477.176H173.415V485.494H188.347V491.58H173.415V499.915H189.625V506H166.034ZM195.425 506V471.091H202.805V499.915H217.771V506H195.425ZM222.659 506V471.091H245.773V477.176H230.04V485.494H244.239V491.58H230.04V506H222.659ZM278.023 485.665V491.426H262.102V485.665H278.023ZM295.456 506V471.091H309.229C311.876 471.091 314.132 471.597 315.996 472.608C317.859 473.608 319.28 475 320.257 476.784C321.246 478.557 321.74 480.602 321.74 482.92C321.74 485.239 321.24 487.284 320.24 489.057C319.24 490.83 317.791 492.21 315.893 493.199C314.007 494.187 311.723 494.682 309.041 494.682H300.263V488.767H307.848C309.268 488.767 310.439 488.523 311.359 488.034C312.291 487.534 312.984 486.847 313.439 485.972C313.905 485.085 314.138 484.068 314.138 482.92C314.138 481.761 313.905 480.75 313.439 479.886C312.984 479.011 312.291 478.335 311.359 477.858C310.428 477.369 309.246 477.125 307.814 477.125H302.837V506H295.456ZM338.909 506H326.534V471.091H339.011C342.523 471.091 345.545 471.79 348.08 473.188C350.614 474.574 352.563 476.568 353.926 479.17C355.301 481.773 355.989 484.886 355.989 488.511C355.989 492.148 355.301 495.273 353.926 497.886C352.563 500.5 350.602 502.506 348.045 503.903C345.5 505.301 342.455 506 338.909 506ZM333.915 499.676H338.602C340.784 499.676 342.619 499.29 344.108 498.517C345.608 497.733 346.733 496.523 347.483 494.886C348.244 493.239 348.625 491.114 348.625 488.511C348.625 485.932 348.244 483.824 347.483 482.188C346.733 480.551 345.614 479.347 344.125 478.574C342.636 477.801 340.801 477.415 338.619 477.415H333.915V499.676ZM378.582 506H370.673L382.724 471.091H392.236L404.27 506H396.361L387.616 479.068H387.344L378.582 506ZM378.088 492.278H396.77V498.04H378.088V492.278Z" fill="black"/>
<rect x="643" y="468" width="506" height="209" fill="#D9D9D9" stroke="black" stroke-width="6"/>
<path d="M815.94 510.131C815.804 508.756 815.219 507.687 814.185 506.926C813.151 506.165 811.747 505.784 809.974 505.784C808.77 505.784 807.753 505.955 806.923 506.295C806.094 506.625 805.457 507.085 805.014 507.676C804.582 508.267 804.366 508.938 804.366 509.688C804.344 510.312 804.474 510.858 804.759 511.324C805.054 511.79 805.457 512.193 805.969 512.534C806.48 512.864 807.071 513.153 807.741 513.403C808.412 513.642 809.128 513.847 809.889 514.017L813.026 514.767C814.548 515.108 815.946 515.562 817.219 516.131C818.491 516.699 819.594 517.398 820.526 518.227C821.457 519.057 822.179 520.034 822.69 521.159C823.213 522.284 823.48 523.574 823.491 525.028C823.48 527.165 822.935 529.017 821.855 530.585C820.787 532.142 819.241 533.352 817.219 534.216C815.207 535.068 812.781 535.494 809.94 535.494C807.122 535.494 804.668 535.062 802.577 534.199C800.497 533.335 798.872 532.057 797.702 530.364C796.543 528.659 795.935 526.551 795.878 524.04H803.02C803.099 525.21 803.435 526.187 804.026 526.972C804.628 527.744 805.429 528.33 806.429 528.727C807.44 529.114 808.582 529.307 809.855 529.307C811.105 529.307 812.19 529.125 813.111 528.761C814.043 528.398 814.764 527.892 815.276 527.244C815.787 526.597 816.043 525.852 816.043 525.011C816.043 524.227 815.81 523.568 815.344 523.034C814.889 522.5 814.219 522.045 813.332 521.67C812.457 521.295 811.384 520.955 810.111 520.648L806.31 519.693C803.366 518.977 801.043 517.858 799.338 516.335C797.634 514.812 796.787 512.761 796.798 510.182C796.787 508.068 797.349 506.222 798.486 504.642C799.634 503.062 801.207 501.83 803.207 500.943C805.207 500.057 807.48 499.614 810.026 499.614C812.616 499.614 814.878 500.057 816.81 500.943C818.753 501.83 820.264 503.062 821.344 504.642C822.423 506.222 822.98 508.051 823.014 510.131H815.94ZM826.411 500.091H834.678L842.638 515.125H842.979L850.939 500.091H859.206L846.473 522.659V535H839.143V522.659L826.411 500.091ZM882.175 510.131C882.038 508.756 881.453 507.687 880.419 506.926C879.385 506.165 877.982 505.784 876.209 505.784C875.004 505.784 873.987 505.955 873.158 506.295C872.328 506.625 871.692 507.085 871.249 507.676C870.817 508.267 870.601 508.938 870.601 509.688C870.578 510.312 870.709 510.858 870.993 511.324C871.288 511.79 871.692 512.193 872.203 512.534C872.714 512.864 873.305 513.153 873.976 513.403C874.646 513.642 875.362 513.847 876.124 514.017L879.26 514.767C880.783 515.108 882.18 515.562 883.453 516.131C884.726 516.699 885.828 517.398 886.76 518.227C887.692 519.057 888.413 520.034 888.925 521.159C889.447 522.284 889.714 523.574 889.726 525.028C889.714 527.165 889.169 529.017 888.089 530.585C887.021 532.142 885.476 533.352 883.453 534.216C881.442 535.068 879.016 535.494 876.175 535.494C873.357 535.494 870.902 535.062 868.811 534.199C866.732 533.335 865.107 532.057 863.936 530.364C862.777 528.659 862.169 526.551 862.112 524.04H869.254C869.334 525.21 869.669 526.187 870.26 526.972C870.862 527.744 871.663 528.33 872.663 528.727C873.675 529.114 874.817 529.307 876.089 529.307C877.339 529.307 878.425 529.125 879.345 528.761C880.277 528.398 880.999 527.892 881.51 527.244C882.021 526.597 882.277 525.852 882.277 525.011C882.277 524.227 882.044 523.568 881.578 523.034C881.124 522.5 880.453 522.045 879.567 521.67C878.692 521.295 877.618 520.955 876.345 520.648L872.544 519.693C869.601 518.977 867.277 517.858 865.572 516.335C863.868 514.812 863.021 512.761 863.033 510.182C863.021 508.068 863.584 506.222 864.72 504.642C865.868 503.062 867.442 501.83 869.442 500.943C871.442 500.057 873.714 499.614 876.26 499.614C878.851 499.614 881.112 500.057 883.044 500.943C884.987 501.83 886.499 503.062 887.578 504.642C888.658 506.222 889.214 508.051 889.249 510.131H882.175ZM893.361 506.176V500.091H922.031V506.176H911.344V535H904.048V506.176H893.361ZM926.753 535V500.091H950.276V506.176H934.134V514.494H949.065V520.58H934.134V528.915H950.344V535H926.753ZM956.143 500.091H965.246L974.859 523.545H975.268L984.882 500.091H993.984V535H986.825V512.278H986.536L977.501 534.83H972.626L963.592 512.193H963.303V535H956.143V500.091ZM747.784 593H735.409V558.091H747.886C751.398 558.091 754.42 558.79 756.955 560.188C759.489 561.574 761.438 563.568 762.801 566.17C764.176 568.773 764.864 571.886 764.864 575.511C764.864 579.148 764.176 582.273 762.801 584.886C761.438 587.5 759.477 589.506 756.92 590.903C754.375 592.301 751.33 593 747.784 593ZM742.79 586.676H747.477C749.659 586.676 751.494 586.29 752.983 585.517C754.483 584.733 755.608 583.523 756.358 581.886C757.119 580.239 757.5 578.114 757.5 575.511C757.5 572.932 757.119 570.824 756.358 569.188C755.608 567.551 754.489 566.347 753 565.574C751.511 564.801 749.676 564.415 747.494 564.415H742.79V586.676ZM770.331 593V558.091H793.854V564.176H777.712V572.494H792.643V578.58H777.712V586.915H793.922V593H770.331ZM818.659 568.131C818.523 566.756 817.938 565.687 816.903 564.926C815.869 564.165 814.466 563.784 812.693 563.784C811.489 563.784 810.472 563.955 809.642 564.295C808.813 564.625 808.176 565.085 807.733 565.676C807.301 566.267 807.085 566.938 807.085 567.688C807.063 568.312 807.193 568.858 807.477 569.324C807.773 569.79 808.176 570.193 808.688 570.534C809.199 570.864 809.79 571.153 810.46 571.403C811.131 571.642 811.847 571.847 812.608 572.017L815.744 572.767C817.267 573.108 818.665 573.562 819.938 574.131C821.21 574.699 822.313 575.398 823.244 576.227C824.176 577.057 824.898 578.034 825.409 579.159C825.932 580.284 826.199 581.574 826.21 583.028C826.199 585.165 825.653 587.017 824.574 588.585C823.506 590.142 821.96 591.352 819.938 592.216C817.926 593.068 815.5 593.494 812.659 593.494C809.841 593.494 807.386 593.062 805.295 592.199C803.216 591.335 801.591 590.057 800.42 588.364C799.261 586.659 798.653 584.551 798.597 582.04H805.739C805.818 583.21 806.153 584.187 806.744 584.972C807.347 585.744 808.148 586.33 809.148 586.727C810.159 587.114 811.301 587.307 812.574 587.307C813.824 587.307 814.909 587.125 815.83 586.761C816.761 586.398 817.483 585.892 817.994 585.244C818.506 584.597 818.761 583.852 818.761 583.011C818.761 582.227 818.528 581.568 818.062 581.034C817.608 580.5 816.938 580.045 816.051 579.67C815.176 579.295 814.102 578.955 812.83 578.648L809.028 577.693C806.085 576.977 803.761 575.858 802.057 574.335C800.352 572.812 799.506 570.761 799.517 568.182C799.506 566.068 800.068 564.222 801.205 562.642C802.352 561.062 803.926 559.83 805.926 558.943C807.926 558.057 810.199 557.614 812.744 557.614C815.335 557.614 817.597 558.057 819.528 558.943C821.472 559.83 822.983 561.062 824.062 562.642C825.142 564.222 825.699 566.051 825.733 568.131H818.659ZM861.976 570.312H854.51C854.374 569.347 854.095 568.489 853.675 567.739C853.254 566.977 852.714 566.33 852.055 565.795C851.396 565.261 850.635 564.852 849.771 564.568C848.919 564.284 847.993 564.142 846.993 564.142C845.186 564.142 843.612 564.591 842.271 565.489C840.93 566.375 839.891 567.67 839.152 569.375C838.413 571.068 838.044 573.125 838.044 575.545C838.044 578.034 838.413 580.125 839.152 581.818C839.902 583.511 840.947 584.79 842.288 585.653C843.629 586.517 845.18 586.949 846.942 586.949C847.93 586.949 848.845 586.818 849.686 586.557C850.538 586.295 851.294 585.915 851.953 585.415C852.612 584.903 853.158 584.284 853.589 583.557C854.033 582.83 854.339 582 854.51 581.068L861.976 581.102C861.783 582.705 861.3 584.25 860.527 585.739C859.766 587.216 858.737 588.54 857.442 589.71C856.158 590.869 854.624 591.79 852.839 592.472C851.067 593.142 849.061 593.477 846.822 593.477C843.709 593.477 840.925 592.773 838.47 591.364C836.027 589.955 834.095 587.915 832.675 585.244C831.266 582.574 830.561 579.341 830.561 575.545C830.561 571.739 831.277 568.5 832.709 565.83C834.141 563.159 836.084 561.125 838.538 559.727C840.993 558.318 843.754 557.614 846.822 557.614C848.845 557.614 850.72 557.898 852.447 558.466C854.186 559.034 855.726 559.864 857.067 560.955C858.408 562.034 859.499 563.358 860.339 564.926C861.192 566.494 861.737 568.29 861.976 570.312ZM867.268 593V558.091H881.041C883.678 558.091 885.928 558.562 887.791 559.506C889.666 560.437 891.092 561.761 892.07 563.477C893.058 565.182 893.553 567.187 893.553 569.494C893.553 571.812 893.053 573.807 892.053 575.477C891.053 577.136 889.604 578.409 887.706 579.295C885.82 580.182 883.536 580.625 880.854 580.625H871.632V574.693H879.661C881.07 574.693 882.24 574.5 883.172 574.114C884.104 573.727 884.797 573.148 885.251 572.375C885.717 571.602 885.95 570.642 885.95 569.494C885.95 568.335 885.717 567.358 885.251 566.562C884.797 565.767 884.098 565.165 883.155 564.756C882.223 564.335 881.047 564.125 879.626 564.125H874.649V593H867.268ZM886.121 577.114L894.797 593H886.649L878.161 577.114H886.121ZM906.149 558.091V593H898.768V558.091H906.149ZM912.222 593V558.091H925.994C928.642 558.091 930.898 558.597 932.761 559.608C934.625 560.608 936.045 562 937.023 563.784C938.011 565.557 938.506 567.602 938.506 569.92C938.506 572.239 938.006 574.284 937.006 576.057C936.006 577.83 934.557 579.21 932.659 580.199C930.773 581.187 928.489 581.682 925.807 581.682H917.028V575.767H924.614C926.034 575.767 927.205 575.523 928.125 575.034C929.057 574.534 929.75 573.847 930.205 572.972C930.67 572.085 930.903 571.068 930.903 569.92C930.903 568.761 930.67 567.75 930.205 566.886C929.75 566.011 929.057 565.335 928.125 564.858C927.193 564.369 926.011 564.125 924.58 564.125H919.602V593H912.222ZM941.97 564.176V558.091H970.641V564.176H959.953V593H952.658V564.176H941.97ZM982.743 558.091V593H975.362V558.091H982.743ZM1020.89 575.545C1020.89 579.352 1020.17 582.591 1018.73 585.261C1017.3 587.932 1015.34 589.972 1012.87 591.381C1010.4 592.778 1007.63 593.477 1004.55 593.477C1001.45 593.477 998.662 592.773 996.196 591.364C993.73 589.955 991.781 587.915 990.349 585.244C988.918 582.574 988.202 579.341 988.202 575.545C988.202 571.739 988.918 568.5 990.349 565.83C991.781 563.159 993.73 561.125 996.196 559.727C998.662 558.318 1001.45 557.614 1004.55 557.614C1007.63 557.614 1010.4 558.318 1012.87 559.727C1015.34 561.125 1017.3 563.159 1018.73 565.83C1020.17 568.5 1020.89 571.739 1020.89 575.545ZM1013.41 575.545C1013.41 573.08 1013.04 571 1012.3 569.307C1011.58 567.614 1010.55 566.33 1009.22 565.455C1007.89 564.58 1006.33 564.142 1004.55 564.142C1002.76 564.142 1001.21 564.58 999.878 565.455C998.548 566.33 997.514 567.614 996.776 569.307C996.048 571 995.685 573.08 995.685 575.545C995.685 578.011 996.048 580.091 996.776 581.784C997.514 583.477 998.548 584.761 999.878 585.636C1001.21 586.511 1002.76 586.949 1004.55 586.949C1006.33 586.949 1007.89 586.511 1009.22 585.636C1010.55 584.761 1011.58 583.477 1012.3 581.784C1013.04 580.091 1013.41 578.011 1013.41 575.545ZM1055.56 558.091V593H1049.19L1034 571.028H1033.74V593H1026.36V558.091H1032.84L1047.91 580.045H1048.21V558.091H1055.56ZM849.456 651V616.091H872.57V622.176H856.837V630.494H871.036V636.58H856.837V651H849.456ZM884.915 616.091V651H877.534V616.091H884.915ZM890.987 651V616.091H898.368V644.915H913.334V651H890.987ZM918.222 651V616.091H941.744V622.176H925.602V630.494H940.534V636.58H925.602V644.915H941.812V651H918.222Z" fill="black"/>
<rect x="332" y="919" width="434" height="148" fill="#D9D9D9" stroke="black" stroke-width="6"/>
<path d="M359.034 975.091H368.136L377.75 998.545H378.159L387.773 975.091H396.875V1010H389.716V987.278H389.426L380.392 1009.83H375.517L366.483 987.193H366.193V1010H359.034V975.091ZM410.337 975.091V1010H402.956V975.091H410.337ZM447.21 987.312H439.744C439.608 986.347 439.33 985.489 438.909 984.739C438.489 983.977 437.949 983.33 437.29 982.795C436.631 982.261 435.869 981.852 435.006 981.568C434.153 981.284 433.227 981.142 432.227 981.142C430.42 981.142 428.847 981.591 427.506 982.489C426.165 983.375 425.125 984.67 424.386 986.375C423.648 988.068 423.278 990.125 423.278 992.545C423.278 995.034 423.648 997.125 424.386 998.818C425.136 1000.51 426.182 1001.79 427.523 1002.65C428.864 1003.52 430.415 1003.95 432.176 1003.95C433.165 1003.95 434.08 1003.82 434.92 1003.56C435.773 1003.3 436.528 1002.91 437.188 1002.41C437.847 1001.9 438.392 1001.28 438.824 1000.56C439.267 999.83 439.574 999 439.744 998.068L447.21 998.102C447.017 999.705 446.534 1001.25 445.761 1002.74C445 1004.22 443.972 1005.54 442.676 1006.71C441.392 1007.87 439.858 1008.79 438.074 1009.47C436.301 1010.14 434.295 1010.48 432.057 1010.48C428.943 1010.48 426.159 1009.77 423.705 1008.36C421.261 1006.95 419.33 1004.91 417.909 1002.24C416.5 999.574 415.795 996.341 415.795 992.545C415.795 988.739 416.511 985.5 417.943 982.83C419.375 980.159 421.318 978.125 423.773 976.727C426.227 975.318 428.989 974.614 432.057 974.614C434.08 974.614 435.955 974.898 437.682 975.466C439.42 976.034 440.96 976.864 442.301 977.955C443.642 979.034 444.733 980.358 445.574 981.926C446.426 983.494 446.972 985.29 447.21 987.312ZM452.503 1010V975.091H466.276C468.912 975.091 471.162 975.562 473.026 976.506C474.901 977.437 476.327 978.761 477.304 980.477C478.293 982.182 478.787 984.187 478.787 986.494C478.787 988.812 478.287 990.807 477.287 992.477C476.287 994.136 474.838 995.409 472.94 996.295C471.054 997.182 468.77 997.625 466.088 997.625H456.866V991.693H464.895C466.304 991.693 467.474 991.5 468.406 991.114C469.338 990.727 470.031 990.148 470.486 989.375C470.952 988.602 471.185 987.642 471.185 986.494C471.185 985.335 470.952 984.358 470.486 983.562C470.031 982.767 469.332 982.165 468.389 981.756C467.457 981.335 466.281 981.125 464.861 981.125H459.884V1010H452.503ZM471.355 994.114L480.031 1010H471.884L463.395 994.114H471.355ZM516.082 992.545C516.082 996.352 515.361 999.591 513.918 1002.26C512.486 1004.93 510.531 1006.97 508.054 1008.38C505.588 1009.78 502.815 1010.48 499.736 1010.48C496.634 1010.48 493.849 1009.77 491.384 1008.36C488.918 1006.95 486.969 1004.91 485.537 1002.24C484.105 999.574 483.389 996.341 483.389 992.545C483.389 988.739 484.105 985.5 485.537 982.83C486.969 980.159 488.918 978.125 491.384 976.727C493.849 975.318 496.634 974.614 499.736 974.614C502.815 974.614 505.588 975.318 508.054 976.727C510.531 978.125 512.486 980.159 513.918 982.83C515.361 985.5 516.082 988.739 516.082 992.545ZM508.599 992.545C508.599 990.08 508.23 988 507.491 986.307C506.764 984.614 505.736 983.33 504.406 982.455C503.077 981.58 501.52 981.142 499.736 981.142C497.952 981.142 496.395 981.58 495.065 982.455C493.736 983.33 492.702 984.614 491.963 986.307C491.236 988 490.872 990.08 490.872 992.545C490.872 995.011 491.236 997.091 491.963 998.784C492.702 1000.48 493.736 1001.76 495.065 1002.64C496.395 1003.51 497.952 1003.95 499.736 1003.95C501.52 1003.95 503.077 1003.51 504.406 1002.64C505.736 1001.76 506.764 1000.48 507.491 998.784C508.23 997.091 508.599 995.011 508.599 992.545ZM521.55 1010V975.091H528.93V990.483H529.391L541.953 975.091H550.8L537.845 990.722L550.953 1010H542.124L532.561 995.648L528.93 1000.08V1010H521.55ZM562.024 975.091V1010H554.643V975.091H562.024ZM566.767 981.176V975.091H595.438V981.176H584.75V1010H577.455V981.176H566.767ZM609.939 981.176V975.091H638.609V981.176H627.922V1010H620.626V981.176H609.939ZM673.817 992.545C673.817 996.352 673.095 999.591 671.652 1002.26C670.22 1004.93 668.266 1006.97 665.788 1008.38C663.322 1009.78 660.55 1010.48 657.47 1010.48C654.368 1010.48 651.584 1009.77 649.118 1008.36C646.652 1006.95 644.703 1004.91 643.271 1002.24C641.839 999.574 641.124 996.341 641.124 992.545C641.124 988.739 641.839 985.5 643.271 982.83C644.703 980.159 646.652 978.125 649.118 976.727C651.584 975.318 654.368 974.614 657.47 974.614C660.55 974.614 663.322 975.318 665.788 976.727C668.266 978.125 670.22 980.159 671.652 982.83C673.095 985.5 673.817 988.739 673.817 992.545ZM666.334 992.545C666.334 990.08 665.964 988 665.226 986.307C664.499 984.614 663.47 983.33 662.141 982.455C660.811 981.58 659.254 981.142 657.47 981.142C655.686 981.142 654.129 981.58 652.8 982.455C651.47 983.33 650.436 984.614 649.697 986.307C648.97 988 648.607 990.08 648.607 992.545C648.607 995.011 648.97 997.091 649.697 998.784C650.436 1000.48 651.47 1001.76 652.8 1002.64C654.129 1003.51 655.686 1003.95 657.47 1003.95C659.254 1003.95 660.811 1003.51 662.141 1002.64C663.47 1001.76 664.499 1000.48 665.226 998.784C665.964 997.091 666.334 995.011 666.334 992.545ZM711.364 992.545C711.364 996.352 710.642 999.591 709.199 1002.26C707.767 1004.93 705.813 1006.97 703.335 1008.38C700.869 1009.78 698.097 1010.48 695.017 1010.48C691.915 1010.48 689.131 1009.77 686.665 1008.36C684.199 1006.95 682.25 1004.91 680.818 1002.24C679.386 999.574 678.67 996.341 678.67 992.545C678.67 988.739 679.386 985.5 680.818 982.83C682.25 980.159 684.199 978.125 686.665 976.727C689.131 975.318 691.915 974.614 695.017 974.614C698.097 974.614 700.869 975.318 703.335 976.727C705.813 978.125 707.767 980.159 709.199 982.83C710.642 985.5 711.364 988.739 711.364 992.545ZM703.881 992.545C703.881 990.08 703.511 988 702.773 986.307C702.045 984.614 701.017 983.33 699.688 982.455C698.358 981.58 696.801 981.142 695.017 981.142C693.233 981.142 691.676 981.58 690.347 982.455C689.017 983.33 687.983 984.614 687.244 986.307C686.517 988 686.153 990.08 686.153 992.545C686.153 995.011 686.517 997.091 687.244 998.784C687.983 1000.48 689.017 1001.76 690.347 1002.64C691.676 1003.51 693.233 1003.95 695.017 1003.95C696.801 1003.95 698.358 1003.51 699.688 1002.64C701.017 1001.76 702.045 1000.48 702.773 998.784C703.511 997.091 703.881 995.011 703.881 992.545ZM716.831 1010V975.091H724.212V1003.91H739.178V1010H716.831Z" fill="black"/>
<rect x="101" y="613" width="361" height="148" fill="#D9D9D9" stroke="black" stroke-width="6"/>
<path d="M166.034 704V669.091H189.557V675.176H173.415V683.494H188.347V689.58H173.415V697.915H189.625V704H166.034ZM195.425 704V669.091H202.805V697.915H217.771V704H195.425ZM222.659 704V669.091H245.773V675.176H230.04V683.494H244.239V689.58H230.04V704H222.659ZM278.023 683.665V689.426H262.102V683.665H278.023ZM295.456 704V669.091H309.229C311.876 669.091 314.132 669.597 315.996 670.608C317.859 671.608 319.28 673 320.257 674.784C321.246 676.557 321.74 678.602 321.74 680.92C321.74 683.239 321.24 685.284 320.24 687.057C319.24 688.83 317.791 690.21 315.893 691.199C314.007 692.187 311.723 692.682 309.041 692.682H300.263V686.767H307.848C309.268 686.767 310.439 686.523 311.359 686.034C312.291 685.534 312.984 684.847 313.439 683.972C313.905 683.085 314.138 682.068 314.138 680.92C314.138 679.761 313.905 678.75 313.439 677.886C312.984 677.011 312.291 676.335 311.359 675.858C310.428 675.369 309.246 675.125 307.814 675.125H302.837V704H295.456ZM338.909 704H326.534V669.091H339.011C342.523 669.091 345.545 669.79 348.08 671.188C350.614 672.574 352.563 674.568 353.926 677.17C355.301 679.773 355.989 682.886 355.989 686.511C355.989 690.148 355.301 693.273 353.926 695.886C352.563 698.5 350.602 700.506 348.045 701.903C345.5 703.301 342.455 704 338.909 704ZM333.915 697.676H338.602C340.784 697.676 342.619 697.29 344.108 696.517C345.608 695.733 346.733 694.523 347.483 692.886C348.244 691.239 348.625 689.114 348.625 686.511C348.625 683.932 348.244 681.824 347.483 680.188C346.733 678.551 345.614 677.347 344.125 676.574C342.636 675.801 340.801 675.415 338.619 675.415H333.915V697.676ZM372.565 704V669.091H386.543C389.111 669.091 391.253 669.472 392.969 670.233C394.685 670.994 395.974 672.051 396.838 673.403C397.702 674.744 398.134 676.29 398.134 678.04C398.134 679.403 397.861 680.602 397.315 681.636C396.77 682.659 396.02 683.5 395.065 684.159C394.122 684.807 393.043 685.267 391.827 685.54V685.881C393.156 685.937 394.401 686.312 395.56 687.006C396.73 687.699 397.679 688.67 398.406 689.92C399.134 691.159 399.497 692.636 399.497 694.352C399.497 696.205 399.037 697.858 398.116 699.312C397.207 700.756 395.861 701.898 394.077 702.739C392.293 703.58 390.094 704 387.48 704H372.565ZM379.946 697.966H385.963C388.02 697.966 389.52 697.574 390.463 696.79C391.406 695.994 391.878 694.937 391.878 693.619C391.878 692.653 391.645 691.801 391.179 691.062C390.713 690.324 390.048 689.744 389.185 689.324C388.332 688.903 387.315 688.693 386.134 688.693H379.946V697.966ZM379.946 683.699H385.418C386.429 683.699 387.327 683.523 388.111 683.17C388.906 682.807 389.531 682.295 389.986 681.636C390.452 680.977 390.685 680.188 390.685 679.267C390.685 678.006 390.236 676.989 389.338 676.216C388.452 675.443 387.19 675.057 385.554 675.057H379.946V683.699Z" fill="black"/>
<line x1="461" y1="486" x2="549" y2="486" stroke="black" stroke-width="6"/>
<line x1="546" y1="569" x2="640" y2="569" stroke="black" stroke-width="6"/>
<line x1="465" y1="684" x2="546" y2="684" stroke="black" stroke-width="6"/>
<path d="M546 916L563.32 886L528.679 886L546 916ZM543 485L543 889L549 889L549 485L543 485Z" fill="black"/>
<path d="M1453 674L1403 645.132V702.868L1453 674ZM1271 679H1408V669H1271V679Z" fill="black"/>
<path d="M2191 674L2141 645.132V702.868L2191 674ZM2009 679H2146V669H2009V679Z" fill="black"/>
</svg>
